<svg xmlns="http://www.w3.org/2000/svg" xmlns:xlink="http://www.w3.org/1999/xlink" viewBox="0 0 32 32">
  <defs>
    <style>
      .a, .b {
        fill: #378cff;
      }

      .a {
        opacity: 0.7;
      }

      .b {
        opacity: 0.4;
      }

      .c {
        fill: url(#a);
      }
    </style>
    <linearGradient id="a" x1="24.26" y1="10.76" x2="4.19" y2="22.34" gradientUnits="userSpaceOnUse">
      <stop offset="0.02" stop-color="#5290ff"/>
      <stop offset="0.41" stop-color="#4f8fff"/>
      <stop offset="0.75" stop-color="#448eff"/>
      <stop offset="1" stop-color="#378cff"/>
    </linearGradient>
  </defs>
  <g>
    <g>
      <rect class="a" x="6.55" y="11.43" width="3.71" height="3.18"/>
      <polygon class="b" points="10.26 5.58 10.26 5.58 6.55 5.58 6.55 8.76 10.26 8.76 10.26 8.76 10.26 8.76 10.26 5.58 10.26 5.58"/>
    </g>
    <path class="c" d="M25.45,16a10,10,0,0,1-1,4.71A9.48,9.48,0,0,1,21.74,24,11,11,0,0,1,18,25.82a14.59,14.59,0,0,1-4.09.61H6.55v-9.1h3.71v5.86h3.09a13,13,0,0,0,2.89-.34,7.54,7.54,0,0,0,2.6-1.15,6,6,0,0,0,1.9-2.2,7.41,7.41,0,0,0,.74-3.5,7.89,7.89,0,0,0-.74-3.65,5.9,5.9,0,0,0-1.9-2.21,7.08,7.08,0,0,0-2.6-1.09,14.24,14.24,0,0,0-2.89-.29H12.7V5.57h1.24A16.52,16.52,0,0,1,18,6.1a10.59,10.59,0,0,1,3.71,1.76,9,9,0,0,1,2.68,3.21A10.58,10.58,0,0,1,25.45,16Z"/>
  </g>
</svg>
