<svg xmlns="http://www.w3.org/2000/svg" xmlns:xlink="http://www.w3.org/1999/xlink" viewBox="0 0 500 500">
  <defs>
    <style>
      .a, .b {
        fill: #378cff;
      }

      .a {
        opacity: 0.7;
      }

      .b {
        opacity: 0.4;
      }

      .c {
        fill: url(#a);
      }
    </style>
    <linearGradient id="a" x1="417.57" y1="142.81" x2="76.86" y2="339.52" gradientUnits="userSpaceOnUse">
      <stop offset="0.02" stop-color="#5290ff"/>
      <stop offset="0.41" stop-color="#4f8fff"/>
      <stop offset="0.75" stop-color="#448eff"/>
      <stop offset="1" stop-color="#378cff"/>
    </linearGradient>
  </defs>
  <g>
    <g>
      <rect class="a" x="56.5" y="194.28" width="27.23" height="23.34"/>
      <polygon class="b" points="83.73 151.29 83.72 151.29 56.5 151.29 56.5 174.62 83.72 174.62 83.73 174.62 83.73 174.62 83.73 151.29 83.73 151.29"/>
    </g>
    <path class="c" d="M325.64,187.29H304.3v13.89A49.39,49.39,0,0,0,291,190.81a45.9,45.9,0,0,0-22.67-5.56,57.31,57.31,0,0,0-22.23,4.38A57,57,0,0,0,215,220.38a56,56,0,0,0-4.5,22.24A58,58,0,0,0,215,265a65.63,65.63,0,0,0,12.3,19.31,58.18,58.18,0,0,0,18.54,13.48,53.26,53.26,0,0,0,22.49,5c13.81,0,25.91-5.3,36-15.77v3a36,36,0,0,1-2.76,13.92,38.19,38.19,0,0,1-7.63,11.72,35.3,35.3,0,0,1-25.38,10.81c-10.69,0-20.13-4.69-28.06-13.95l-.52-.6-.68.41-17.9,10.65-1,.56.7.85c13.27,16.16,29.22,24.36,47.41,24.36A56.55,56.55,0,0,0,291,344.1a57.22,57.22,0,0,0,18.55-12.67,61.49,61.49,0,0,0,12.54-18.87A57.56,57.56,0,0,0,326.58,290V187.29Zm-24.33,71a35,35,0,0,1-7.61,11.59,37,37,0,0,1-11.49,7.73,35.12,35.12,0,0,1-27.81,0,36.94,36.94,0,0,1-11.49-7.73,36.42,36.42,0,0,1-7.73-11.6,35.7,35.7,0,0,1,0-28.05,39.17,39.17,0,0,1,7.75-11.84,33.53,33.53,0,0,1,11.46-7.82,36.46,36.46,0,0,1,27.83,0,33.62,33.62,0,0,1,11.46,7.82,37.7,37.7,0,0,1,7.63,11.83,37.07,37.07,0,0,1,0,28.07ZM366.9,151.75v21h-21v-21h21Zm-1,37.11h.94V304.05H346V188.86h20ZM195.21,227.78q0,20.08-7.56,34.57A70.65,70.65,0,0,1,168,286.11a82.07,82.07,0,0,1-27.22,13.72,106.27,106.27,0,0,1-30,4.43H56.5V237.52H83.73v43h22.69A92.26,92.26,0,0,0,127.59,278a55,55,0,0,0,19.12-8.43,44.76,44.76,0,0,0,13.93-16.09q5.4-10.16,5.41-25.71,0-16.42-5.41-26.8a43.44,43.44,0,0,0-13.93-16.2,52.1,52.1,0,0,0-19.12-8,106.47,106.47,0,0,0-21.18-2.16h-4.76V151.29h9.08a120,120,0,0,1,30,3.89A77.88,77.88,0,0,1,168,168a67.28,67.28,0,0,1,19.66,23.55Q195.21,206.18,195.21,227.78ZM443.5,281.57v20.18q-10.37,3-16.73,3-14,0-20.18-7.06t-6.15-24.23V211.83H383.13v-23.6h17.31v-16l22.34-20.4v36.39H441v23.6H422.78v57q0,9.29,2,12t6.86,2.75A36.12,36.12,0,0,0,443.5,281.57Z"/>
  </g>
</svg>
