<svg xmlns="http://www.w3.org/2000/svg" xmlns:xlink="http://www.w3.org/1999/xlink" viewBox="0 0 1368.73 693.86">
  <defs>
    <style>
      .a {
        opacity: 0.7;
        fill: url(#a);
      }

      .b {
        fill: url(#b);
      }

      .c {
        fill: url(#c);
      }

      .d {
        fill: url(#d);
      }

      .e {
        fill: url(#e);
      }

      .f {
        fill: url(#f);
      }

      .g {
        fill: url(#g);
      }

      .h {
        fill: url(#h);
      }

      .i {
        fill: url(#i);
      }
    </style>
    <linearGradient id="a" x1="441.24" y1="140.57" x2="392.27" y2="168.84" gradientUnits="userSpaceOnUse">
      <stop offset="0.02" stop-color="#5290ff"/>
      <stop offset="0.41" stop-color="#4f8fff"/>
      <stop offset="0.75" stop-color="#448eff"/>
      <stop offset="1" stop-color="#378cff"/>
    </linearGradient>
    <linearGradient id="b" x1="419.12" y1="213.06" x2="137.91" y2="375.42" xlink:href="#a"/>
    <linearGradient id="c" x1="399.8" y1="410.71" x2="160.41" y2="548.92" xlink:href="#a"/>
    <linearGradient id="d" x1="1044.16" y1="247.74" x2="1006.55" y2="269.45" xlink:href="#a"/>
    <linearGradient id="e" x1="585.63" y1="344.54" x2="463.83" y2="414.86" xlink:href="#a"/>
    <linearGradient id="f" x1="757.81" y1="351.69" x2="599.04" y2="443.36" xlink:href="#a"/>
    <linearGradient id="g" x1="961.81" y1="347.87" x2="755.66" y2="466.89" xlink:href="#a"/>
    <linearGradient id="h" x1="1074.89" y1="368.92" x2="975.58" y2="426.26" xlink:href="#a"/>
    <linearGradient id="i" x1="1242.64" y1="359.04" x2="1081.92" y2="451.84" xlink:href="#a"/>
  </defs>
  <g>
    <g>
      <g>
        <rect class="a" x="392.07" y="130.66" width="49.36" height="48.1" rx="14"/>
        <path class="b" d="M404.72,200.16H383.26a12,12,0,0,0-12,12.06c0,12,.08,28.67.08,28.86v119a32,32,0,0,1-31.82,31.82H211.41a32,32,0,0,1-31.82-31.82V232a32,32,0,0,1,31.82-31.82h143a16.24,16.24,0,0,0,16.24-16.24V171A16.25,16.25,0,0,0,354.4,154.7H227.65a93.52,93.52,0,0,0-93.51,93.52v95.59a93.52,93.52,0,0,0,93.51,93.51h95.59a93.51,93.51,0,0,0,93.51-93.51V212.2A12,12,0,0,0,404.72,200.16Z"/>
      </g>
      <path class="c" d="M380.79,433.54c-5.24,0-9.49,3.9-9.49,8.7V492.3a27.83,27.83,0,0,1-9.37,20.6,33.07,33.07,0,0,1-22.45,8.6H211.41A33.07,33.07,0,0,1,189,512.9a27.83,27.83,0,0,1-9.37-20.6V442.24c0-4.8-4.24-8.7-9.48-8.7H143.62c-5.23,0-9.48,3.9-9.48,8.7v41.35c0,44,38.84,79.62,86.76,79.62H330c47.91,0,86.75-35.65,86.75-79.62V442.24c0-4.8-4.24-8.7-9.48-8.7Z"/>
    </g>
    <rect class="d" x="1005.95" y="239.69" width="38.81" height="37.81" rx="12.42"/>
    <g>
      <path class="e" d="M491.83,336.85H480.56c-10.73,0-17.25-6-17.25-15.66,0-9.86,6.34-15.67,17.25-15.67h12V278.24c0-13.37,6.86-21.12,19-21.12s19.18,7.75,19.18,21.12v27.28H552.2c10.91,0,17.07,5.81,17.07,15.67,0,9.68-6.34,15.66-17.07,15.66H531.08V438.24c0,18.3,4.57,23.93,20.06,23.93,4.93,0,8.27-.52,12.15-.52,7.39,0,12.67,4.92,12.67,12.67,0,6-2.82,11.09-8.63,14.43s-14.25,5.1-25.69,5.1c-35.2,0-49.81-14.6-49.81-52.8Z"/>
      <path class="f" d="M761.56,384.73v25c0,53.69-34.67,84.31-83.07,84.31-48.58,0-83.26-30.62-83.26-84.31V384.9c0-53,34.68-83.95,83.26-83.95C726.89,301,761.56,331.93,761.56,384.73Zm-126.37,1.94v21.64c0,33.62,16.72,54.22,43.3,54.22,26.75,0,42.94-20.6,42.94-54.22V386.67c0-33.09-16.19-54-42.94-54C651.91,332.63,635.19,353.58,635.19,386.67Z"/>
      <path class="g" d="M819.38,557.39c-12.32,0-19.36-7.74-19.36-21.64V324.53c0-13.9,6.69-21.65,18.83-21.65,11.8,0,18.66,7,19.19,19.72V334H840c7.56-20.07,28.51-32.39,54.91-32.39,43.48,0,70.23,30.8,70.23,81.14v29c0,50.52-27.11,81.32-71.11,81.32-25.52,0-44.71-11.09-53-30.62H839.1v73.22C839.1,549.65,831.88,557.39,819.38,557.39Zm63.54-96.45c26.93,0,42.42-19.89,42.42-54.39v-18.3c0-34.85-15.49-54.39-43-54.39-26.93,0-43.29,18.83-43.29,50.69v28.52C839.1,441.76,856.87,460.94,882.92,460.94Z"/>
      <path class="h" d="M1025.23,492.27c-11.8,0-19.54-7.39-19.54-21.65V324.53c0-14.43,7.92-21.65,19.54-21.65,11.79,0,19.53,7.4,19.53,21.65V470.62C1044.76,485.05,1037,492.27,1025.23,492.27Z"/>
      <path class="i" d="M1143.24,493.15c-36.26,0-60.72-22.88-60.72-56.67,0-34.33,25-55.27,66.53-55.45h46.47V364.49c0-20.95-12.85-31.86-36.61-31.86-14.79,0-25,5.28-35.73,16.19-4.76,4.58-9.33,6.34-16,6.34-8.62,0-14.26-5.81-14.26-14.26,0-10.73,7.39-21.3,23.06-29.74,11.26-6.16,26-9.51,45.41-9.51,47,0,73.22,22.53,73.22,63V471.15c0,13.38-6.86,21.12-19,21.12-10.73,0-17.6-6.51-18.48-17.6V466.4h-1.94C1185,483.65,1166.3,493.15,1143.24,493.15Zm12.15-29.74c22.7,0,40.13-15.49,40.13-35.56V407.79h-41c-20.77,0-32.74,9.68-32.74,26.75C1121.77,451.79,1135.32,463.41,1155.39,463.41Z"/>
    </g>
  </g>
</svg>
